<svg id="visual" viewBox="0 0 900 600" width="900" height="600" xmlns="http://www.w3.org/2000/svg" xmlns:xlink="http://www.w3.org/1999/xlink" version="1.1"><rect x="0" y="0" width="900" height="600" fill="#001220"></rect><path d="M0 410L21.5 408.7C43 407.3 86 404.7 128.8 398.8C171.7 393 214.3 384 257.2 383.5C300 383 343 391 385.8 395.2C428.7 399.3 471.3 399.7 514.2 404.7C557 409.7 600 419.3 642.8 424.8C685.7 430.3 728.3 431.7 771.2 429.3C814 427 857 421 878.5 418L900 415L900 601L878.5 601C857 601 814 601 771.2 601C728.3 601 685.7 601 642.8 601C600 601 557 601 514.2 601C471.3 601 428.7 601 385.8 601C343 601 300 601 257.2 601C214.3 601 171.7 601 128.8 601C86 601 43 601 21.5 601L0 601Z" fill="#59469f"></path><path d="M0 468L21.5 468.2C43 468.3 86 468.7 128.8 468C171.7 467.3 214.3 465.7 257.2 454.8C300 444 343 424 385.8 417.7C428.7 411.3 471.3 418.7 514.2 428.2C557 437.7 600 449.3 642.8 458.2C685.7 467 728.3 473 771.2 463.7C814 454.3 857 429.7 878.5 417.3L900 405L900 601L878.5 601C857 601 814 601 771.2 601C728.3 601 685.7 601 642.8 601C600 601 557 601 514.2 601C471.3 601 428.7 601 385.8 601C343 601 300 601 257.2 601C214.3 601 171.7 601 128.8 601C86 601 43 601 21.5 601L0 601Z" fill="#523a8e"></path><path d="M0 454L21.5 461.5C43 469 86 484 128.8 491.5C171.7 499 214.3 499 257.2 490C300 481 343 463 385.8 463.2C428.7 463.3 471.3 481.7 514.2 481.3C557 481 600 462 642.8 451.5C685.7 441 728.3 439 771.2 443C814 447 857 457 878.5 462L900 467L900 601L878.5 601C857 601 814 601 771.2 601C728.3 601 685.7 601 642.8 601C600 601 557 601 514.2 601C471.3 601 428.7 601 385.8 601C343 601 300 601 257.2 601C214.3 601 171.7 601 128.8 601C86 601 43 601 21.5 601L0 601Z" fill="#4a2e7d"></path><path d="M0 487L21.5 492.8C43 498.7 86 510.3 128.8 514.3C171.7 518.3 214.3 514.7 257.2 515C300 515.3 343 519.7 385.8 516.3C428.7 513 471.3 502 514.2 499.8C557 497.7 600 504.3 642.8 509C685.7 513.7 728.3 516.3 771.2 515.7C814 515 857 511 878.5 509L900 507L900 601L878.5 601C857 601 814 601 771.2 601C728.3 601 685.7 601 642.8 601C600 601 557 601 514.2 601C471.3 601 428.7 601 385.8 601C343 601 300 601 257.2 601C214.3 601 171.7 601 128.8 601C86 601 43 601 21.5 601L0 601Z" fill="#42226d"></path><path d="M0 533L21.5 532.2C43 531.3 86 529.7 128.8 536.3C171.7 543 214.3 558 257.2 565.2C300 572.3 343 571.7 385.8 571.7C428.7 571.7 471.3 572.3 514.2 565.5C557 558.7 600 544.3 642.8 540.7C685.7 537 728.3 544 771.2 546C814 548 857 545 878.5 543.5L900 542L900 601L878.5 601C857 601 814 601 771.2 601C728.3 601 685.7 601 642.8 601C600 601 557 601 514.2 601C471.3 601 428.7 601 385.8 601C343 601 300 601 257.2 601C214.3 601 171.7 601 128.8 601C86 601 43 601 21.5 601L0 601Z" fill="#39165d"></path></svg>