<svg id="visual" viewBox="0 0 960 540" width="960" height="540" xmlns="http://www.w3.org/2000/svg" xmlns:xlink="http://www.w3.org/1999/xlink" version="1.1"><rect x="0" y="0" width="960" height="540" fill="#001220"></rect><path d="M0 393L16 386.7C32 380.3 64 367.7 96 363.7C128 359.7 160 364.3 192 376.2C224 388 256 407 288 406.8C320 406.7 352 387.3 384 385.3C416 383.3 448 398.7 480 411.3C512 424 544 434 576 424.3C608 414.7 640 385.3 672 385.7C704 386 736 416 768 432.8C800 449.7 832 453.3 864 440.3C896 427.3 928 397.7 944 382.8L960 368L960 541L944 541C928 541 896 541 864 541C832 541 800 541 768 541C736 541 704 541 672 541C640 541 608 541 576 541C544 541 512 541 480 541C448 541 416 541 384 541C352 541 320 541 288 541C256 541 224 541 192 541C160 541 128 541 96 541C64 541 32 541 16 541L0 541Z" fill="#6600FF" stroke-linecap="round" stroke-linejoin="miter"></path></svg>